# xmcd
#
# Track frame offsets: 
#        212
#        17930
#        36392
#        64510
#        83055
#        104012
#
# Disc length: 1601 seconds
#
# Revision: 1
# Processed by: cddbd v1.5.2PL0 Copyright (c) Steve Scherf et al.
# Submitted via: ExactAudioCopyFreeDBPlugin 1.0
#
DISCID=4a063f06
DTITLE=After 7 - Can't Stop (Promo CDM)
DYEAR=1990
DGENRE=Funk
TTITLE0=Can't Stop (7" Edit)
TTITLE1=Can't Stop (Lp Edit)
TTITLE2=Can't Stop (Ext. Mix)
TTITLE3=Can't Stop (Clap-a-Pella)
TTITLE4=Can't Stop (Instrumental)
TTITLE5=Can't Stop (One World 7")
EXTD=
EXTT0=
EXTT1=
EXTT2=
EXTT3=
EXTT4=
EXTT5=
PLAYORDER=
